<svg width="38" height="50" viewBox="0 0 38 50" fill="none" xmlns="http://www.w3.org/2000/svg">
<path d="M4.9375 3.125L7.28125 7.03125L4.9375 10.9375L2.59375 7.03125L4.9375 3.125Z" fill="#9D2888"/>
<path d="M20.4766 21.0938L13.5312 33.5938V22.4844L20.4766 21.0938Z" fill="#620774"/>
<path d="M13.5312 8.59375V22.4844L6.58594 21.0937L13.5312 8.59375Z" fill="#C47EB8"/>
<path d="M13.5312 8.59375L20.4766 21.0937L13.5312 22.4844V8.59375Z" fill="#9D2888"/>
<path d="M13.5312 22.4844V33.5938L6.58594 21.0938L13.5312 22.4844Z" fill="#9D2888"/>
<path d="M28.7656 36.3281L31.1094 40.2344L28.7656 44.1406L26.4219 40.2344L28.7656 36.3281Z" fill="#9D2888"/>
<path d="M28.7656 44.1406L31.1094 40.2344L28.7656 36.3281L26.4219 40.2344L28.7656 44.1406ZM28.7656 34.125C32.1406 34.125 34.875 36.8594 34.875 40.2344C34.875 43.6094 32.1406 46.3438 28.7656 46.3438C25.3906 46.3438 22.6562 43.6094 22.6562 40.2344C22.6562 36.8594 25.3906 34.125 28.7656 34.125Z" fill="#FFB000"/>
<path d="M30.7813 31.4766C34.7734 32.3906 37.75 35.9688 37.75 40.2344C37.75 45.1953 33.7266 49.2188 28.7656 49.2188C24.9375 49.2188 21.6719 46.8281 20.375 43.4609C19.9922 42.4609 19.7813 41.375 19.7813 40.2344C19.7813 40.1016 19.7812 39.9688 19.7891 39.8438C19.9687 35.7266 22.9141 32.3281 26.8125 31.4609C27.4062 31.3281 28.0312 31.2578 28.6641 31.25H28.7656C29.4609 31.25 30.1328 31.3281 30.7813 31.4766ZM34.875 40.2344C34.875 36.8594 32.1406 34.125 28.7656 34.125C25.3906 34.125 22.6563 36.8594 22.6563 40.2344C22.6563 43.6094 25.3906 46.3438 28.7656 46.3438C32.1406 46.3438 34.875 43.6094 34.875 40.2344Z" fill="#FF8939"/>
<path d="M20.375 43.4609L9.58594 39.8438H19.7891C19.7812 39.9687 19.7812 40.1016 19.7812 40.2344C19.7812 41.375 19.9922 42.4609 20.375 43.4609Z" fill="#72565D"/>
<path d="M28.6641 31.25L33.2188 6.97656C33.2422 6.84375 33.2656 6.70312 33.2656 6.57031L35.5625 7.34375C37.1953 7.89062 38.0781 9.66406 37.5312 11.3047L30.7813 31.4766C30.1328 31.3281 29.4609 31.25 28.7656 31.25C28.7344 31.25 28.6953 31.25 28.6641 31.25Z" fill="#72565D"/>
<path d="M26.8125 31.4609V3.90625C26.8125 3.41406 26.6953 2.94531 26.4844 2.53125L30.7266 3.32813C32.2891 3.625 33.3594 5.02344 33.2656 6.57031C33.2656 6.70312 33.2422 6.84375 33.2188 6.97656L28.6641 31.25C28.0312 31.2578 27.4062 31.3281 26.8125 31.4609Z" fill="#D6D4CE"/>
<path d="M4.9375 3.125L2.59375 7.03125L4.9375 10.9375L7.28125 7.03125L4.9375 3.125ZM3.375 0.78125H23.6875C24.9219 0.78125 25.9844 1.49219 26.4844 2.53125C26.6953 2.94531 26.8125 3.41406 26.8125 3.90625V31.4609C22.9141 32.3281 19.9687 35.7266 19.7891 39.8438H9.58594H3.375C1.64844 39.8438 0.25 38.4453 0.25 36.7188V3.90625C0.25 2.17969 1.64844 0.78125 3.375 0.78125ZM20.4766 21.0938L13.5312 8.59375L6.58594 21.0938L13.5312 33.5938L20.4766 21.0938Z" fill="#F8F4E8"/>
</svg>
