<svg width="12" height="20" viewBox="0 0 12 20" fill="none" xmlns="http://www.w3.org/2000/svg">
<path d="M10.865 10.8707L10.5259 11.0694L6.7441 13.2775C6.18036 13.6072 5.48349 13.6072 4.91975 13.2775L0.799884 10.8707C0.0281236 10.4203 -0.229824 9.42806 0.223663 8.65942L4.71797 1.04271L5.07993 0.429045C5.41796 -0.143015 6.24589 -0.143015 6.58392 0.429045L11.4402 8.65942C11.8937 9.42806 11.6357 10.4203 10.865 10.8707Z" fill="#413C3A"/>
<path d="M11.5099 12.5494L10.9129 13.4012L10.6247 13.8121L6.54753 19.6284C6.29374 19.9893 5.83609 20.0871 5.47101 19.9227C5.33476 19.8614 5.21203 19.7626 5.11738 19.6284L1.04015 13.8121L0.15502 12.5494C-0.0176382 12.3029 0.268391 11.9961 0.526338 12.151L4.90103 14.7794C5.47413 15.1237 6.19077 15.1237 6.76387 14.7794L11.1386 12.151C11.3965 11.9961 11.6825 12.3029 11.5099 12.5494Z" fill="#413C3A"/>
<path d="M10.5259 11.0694L6.7441 13.2776C6.18036 13.6073 5.48349 13.6073 4.91975 13.2776L0.799884 10.8708C0.0281236 10.4204 -0.229824 9.42816 0.223663 8.65952L4.71797 1.0428C5.03313 1.0168 5.36076 1.1593 5.54382 1.46925L10.4001 9.69963C10.6549 10.1313 10.6851 10.6326 10.5259 11.0694Z" fill="#404653"/>
<path d="M6.76388 16.1317C6.19067 16.4761 5.47425 16.4761 4.90104 16.1317L1.04016 13.8123L5.11739 19.6285C5.21204 19.7627 5.33477 19.8615 5.47102 19.9229L8.46269 15.655C8.61371 15.4395 8.36325 15.1708 8.13776 15.3063L6.76388 16.1317Z" fill="#404653"/>
</svg>
