<svg width="50" height="50" viewBox="0 0 50 50" fill="none" xmlns="http://www.w3.org/2000/svg">
<circle cx="25" cy="25" r="25" fill="#38BDF8"/>
<path d="M35 35.0002V27.6752C35 24.0752 34.225 21.3252 30.025 21.3252C28 21.3252 26.65 22.4252 26.1 23.4752H26.05V21.6502H22.075V35.0002H26.225V28.3752C26.225 26.6252 26.55 24.9502 28.7 24.9502C30.825 24.9502 30.85 26.9252 30.85 28.4752V34.9752H35V35.0002Z" fill="white"/>
<path d="M15.325 21.6499H19.475V34.9999H15.325V21.6499Z" fill="white"/>
<path d="M17.4 15C16.075 15 15 16.075 15 17.4C15 18.725 16.075 19.825 17.4 19.825C18.725 19.825 19.8 18.725 19.8 17.4C19.8 16.075 18.725 15 17.4 15Z" fill="white"/>
</svg>
