<svg width="50" height="50" viewBox="0 0 50 50" fill="none" xmlns="http://www.w3.org/2000/svg">
<circle cx="25" cy="25" r="25" fill="#EE4A4A"/>
<path d="M29.9996 15H19.9999C17.2502 15 15 17.2502 15 19.9999V30.0001C15 32.7491 17.2502 35 19.9999 35H29.9996C32.7493 35 34.9995 32.7491 34.9995 30.0001V19.9999C34.9995 17.2502 32.7493 15 29.9996 15ZM33.3328 30.0001C33.3328 31.8376 31.8381 33.3333 29.9996 33.3333H19.9999C18.1622 33.3333 16.6667 31.8376 16.6667 30.0001V19.9999C16.6667 18.1619 18.1622 16.6667 19.9999 16.6667H29.9996C31.8381 16.6667 33.3328 18.1619 33.3328 19.9999V30.0001Z" fill="white"/>
<path d="M30.4171 20.8329C31.1075 20.8329 31.6671 20.2733 31.6671 19.583C31.6671 18.8926 31.1075 18.333 30.4171 18.333C29.7268 18.333 29.1671 18.8926 29.1671 19.583C29.1671 20.2733 29.7268 20.8329 30.4171 20.8329Z" fill="white"/>
<path d="M24.9998 20C22.2378 20 19.9999 22.2382 19.9999 24.9999C19.9999 27.7606 22.2378 30.0002 24.9998 30.0002C27.7609 30.0002 29.9996 27.7606 29.9996 24.9999C29.9996 22.2382 27.7609 20 24.9998 20ZM24.9998 28.3335C23.159 28.3335 21.6666 26.8411 21.6666 24.9999C21.6666 23.1587 23.159 21.6667 24.9998 21.6667C26.8405 21.6667 28.3329 23.1587 28.3329 24.9999C28.3329 26.8411 26.8405 28.3335 24.9998 28.3335Z" fill="white"/>
</svg>
