<svg width="100" height="100" viewBox="0 0 100 100" fill="none" xmlns="http://www.w3.org/2000/svg">
<path d="M40.625 78.125C61.3357 78.125 78.125 61.3357 78.125 40.625C78.125 19.9143 61.3357 3.125 40.625 3.125C19.9143 3.125 3.125 19.9143 3.125 40.625C3.125 61.3357 19.9143 78.125 40.625 78.125Z" fill="#225980"/>
<path d="M40.625 73.3426C58.6942 73.3426 73.3422 58.6946 73.3422 40.6254C73.3422 22.5562 58.6942 7.9082 40.625 7.9082C22.5558 7.9082 7.90781 22.5562 7.90781 40.6254C7.90781 58.6946 22.5558 73.3426 40.625 73.3426Z" fill="#419BD7"/>
<path d="M40.625 71.875C57.8839 71.875 71.875 57.8839 71.875 40.625C71.875 23.3661 57.8839 9.375 40.625 9.375C23.3661 9.375 9.375 23.3661 9.375 40.625C9.375 57.8839 23.3661 71.875 40.625 71.875Z" fill="#26669E"/>
<path d="M18.8453 59.2799C18.8434 63.8342 19.6104 68.3561 21.1141 72.6549C28.3076 77.0391 36.7678 78.8735 45.1312 77.8623C53.4945 76.8512 61.2738 73.0534 67.2152 67.0812C73.1566 61.1089 76.914 53.3101 77.8818 44.9416C78.8496 36.5731 76.9714 28.1225 72.55 20.9518C66.4466 18.8535 59.9303 18.2431 53.5433 19.1715C47.1564 20.1 41.0835 22.5404 35.8301 26.2896C30.5767 30.0389 26.2947 34.9886 23.3404 40.7268C20.3862 46.465 18.845 52.8259 18.8453 59.2799V59.2799Z" fill="#18435E"/>
<path d="M18.75 39.0625H29.6875V42.1875H18.75V39.0625Z" fill="#7FCDF2"/>
<path d="M34.375 35.9375H26.5625C26.1481 35.9375 25.7507 35.7729 25.4576 35.4799C25.1646 35.1868 25 34.7894 25 34.375V28.125H28.125V32.8125H34.375V35.9375Z" fill="#7FCDF2"/>
<path d="M39.0625 20.3125H42.1875V31.25H39.0625V20.3125Z" fill="#7FCDF2"/>
<path d="M18.75 43.6543C20.4759 43.6543 21.875 42.2552 21.875 40.5293C21.875 38.8034 20.4759 37.4043 18.75 37.4043C17.0241 37.4043 15.625 38.8034 15.625 40.5293C15.625 42.2552 17.0241 43.6543 18.75 43.6543Z" fill="#F9D161"/>
<path d="M40.625 21.7793C42.3509 21.7793 43.75 20.3802 43.75 18.6543C43.75 16.9284 42.3509 15.5293 40.625 15.5293C38.8991 15.5293 37.5 16.9284 37.5 18.6543C37.5 20.3802 38.8991 21.7793 40.625 21.7793Z" fill="#F9D161"/>
<path d="M26.5625 29.5918C28.2884 29.5918 29.6875 28.1927 29.6875 26.4668C29.6875 24.7409 28.2884 23.3418 26.5625 23.3418C24.8366 23.3418 23.4375 24.7409 23.4375 26.4668C23.4375 28.1927 24.8366 29.5918 26.5625 29.5918Z" fill="#F9D161"/>
<path d="M29.6875 39.0625H24.2531C23.6677 40.0781 23.125 41.1198 22.625 42.1875H29.6875V39.0625Z" fill="#4AAEE3"/>
<path d="M34.375 35.9375V32.8125H28.6953C27.8453 33.7958 27.0437 34.8193 26.2906 35.8828C26.3793 35.9097 26.4703 35.928 26.5625 35.9375H34.375Z" fill="#4AAEE3"/>
<path d="M42.1875 31.2498V22.5732C41.1187 23.0753 40.0771 23.6217 39.0625 24.2123V31.2498H42.1875Z" fill="#4AAEE3"/>
<path d="M59.375 96.875C80.0857 96.875 96.875 80.0857 96.875 59.375C96.875 38.6643 80.0857 21.875 59.375 21.875C38.6643 21.875 21.875 38.6643 21.875 59.375C21.875 80.0857 38.6643 96.875 59.375 96.875Z" fill="#FBE47F"/>
<path d="M59.375 92.0926C77.4442 92.0926 92.0922 77.4446 92.0922 59.3754C92.0922 41.3062 77.4442 26.6582 59.375 26.6582C41.3058 26.6582 26.6578 41.3062 26.6578 59.3754C26.6578 77.4446 41.3058 92.0926 59.375 92.0926Z" fill="#BC9834"/>
<path d="M59.375 90.625C76.6339 90.625 90.625 76.6339 90.625 59.375C90.625 42.1161 76.6339 28.125 59.375 28.125C42.1161 28.125 28.125 42.1161 28.125 59.375C28.125 76.6339 42.1161 90.625 59.375 90.625Z" fill="#F5B94C"/>
<path d="M73.4375 48.4375L67.1875 54.6875L57.8125 45.3125L48.4375 54.6875L42.1875 48.4375L57.8125 32.8125L73.4375 48.4375Z" fill="#CCCCCC"/>
<path d="M73.4375 70.3125L67.1875 64.0625L57.8125 73.4375L48.4375 64.0625L42.1875 70.3125L57.8125 85.9375L73.4375 70.3125Z" fill="#CCCCCC"/>
<path d="M51.5519 59.375L57.8021 53.1249L64.0522 59.375L57.8021 65.6251L51.5519 59.375Z" fill="#CCCCCC"/>
<path d="M31.241 59.373L37.4911 53.1229L43.7413 59.373L37.4911 65.6232L31.241 59.373Z" fill="#CCCCCC"/>
<path d="M71.8628 59.3765L78.113 53.1263L84.3631 59.3765L78.113 65.6266L71.8628 59.3765Z" fill="#CCCCCC"/>
<path d="M75 48.4375L68.75 54.6875L59.375 45.3125L50 54.6875L43.75 48.4375L59.375 32.8125L75 48.4375Z" fill="white"/>
<path d="M75 70.3125L68.75 64.0625L59.375 73.4375L50 64.0625L43.75 70.3125L59.375 85.9375L75 70.3125Z" fill="white"/>
<path d="M53.1144 59.375L59.3646 53.1249L65.6147 59.375L59.3646 65.6251L53.1144 59.375Z" fill="white"/>
<path d="M32.8035 59.373L39.0536 53.1229L45.3038 59.373L39.0536 65.6232L32.8035 59.373Z" fill="white"/>
<path d="M73.4238 59.377L79.6739 53.1268L85.9241 59.377L79.6739 65.6271L73.4238 59.377Z" fill="white"/>
</svg>
