<svg width="100" height="100" viewBox="0 0 100 100" fill="none" xmlns="http://www.w3.org/2000/svg">
<path d="M50 88.1344C28.9725 88.1344 11.8652 71.0271 11.8652 49.9998C11.8652 28.9725 28.9725 11.8652 50 11.8652C71.0276 11.8652 88.1346 28.9725 88.1346 49.9998C88.1346 71.0271 71.0274 88.1344 50 88.1344ZM50 14.8834C30.6367 14.8834 14.8834 30.6365 14.8834 49.9998C14.8834 69.3631 30.6367 85.1162 50 85.1162C69.3633 85.1162 85.1164 69.3631 85.1164 49.9998C85.1164 30.6365 69.3631 14.8834 50 14.8834Z" fill="#FFF1E2"/>
<path d="M50 78.4658C34.3039 78.4658 21.5342 65.6961 21.5342 50C21.5342 34.3039 34.3037 21.5342 50 21.5342C65.6963 21.5342 78.4658 34.3039 78.4658 50C78.4658 65.6961 65.6961 78.4658 50 78.4658ZM50 24.5523C35.968 24.5523 24.5522 35.9682 24.5522 50C24.5522 64.0318 35.9678 75.4477 50 75.4477C64.0322 75.4477 75.4477 64.032 75.4477 50C75.4477 35.968 64.032 24.5523 50 24.5523Z" fill="#FFF1E2"/>
<path d="M50 97.1719C37.4 97.1719 25.5541 92.2652 16.6446 83.3557C7.73498 74.4461 2.82814 62.6 2.82814 50C2.82814 37.4 7.73498 25.5541 16.6446 16.6445C25.5541 7.73496 37.3998 2.82812 50 2.82812C62.6002 2.82812 74.4459 7.73477 83.3555 16.6443C92.2651 25.5539 97.1717 37.4 97.1717 50C97.1717 62.6 92.2649 74.4459 83.3555 83.3555C74.4461 92.265 62.6 97.1719 50 97.1719ZM50 5.84629C25.6537 5.84629 5.84631 25.6535 5.84631 50C5.84631 74.3465 25.6537 94.1537 50 94.1537C74.3463 94.1537 94.1535 74.3465 94.1535 50C94.1535 25.6535 74.3461 5.84629 50 5.84629Z" fill="#FFF1E2"/>
<path d="M48.7887 71.497C48.7887 72.8249 49.8691 73.9034 51.1971 73.9034H64.5693C61.5512 88.7907 48.3883 99.9979 32.6096 99.9979C20.7887 99.9979 10.4365 93.7083 4.71622 84.2917H21.8611C24.5514 84.2917 26.7404 82.1046 26.7404 79.4144C26.7404 78.1126 26.2314 76.8872 25.3119 75.9657C24.3904 75.0442 23.165 74.5372 21.8611 74.5372H20.1045C17.2996 74.5372 15.016 72.2556 15.016 69.4526C15.016 68.0966 15.5451 66.8188 16.5049 65.8571C17.4666 64.8933 18.7463 64.3642 20.1045 64.3642H37.0059C39.7102 64.3642 41.9094 62.1649 41.9094 59.4608C41.9094 58.153 41.3982 56.9216 40.4729 55.9921C39.5473 55.0685 38.3139 54.5575 37.0061 54.5575H26.515C24.0061 54.5575 21.9656 52.5192 21.9656 50.0122C21.9656 48.797 22.4385 47.654 23.2977 46.7948C24.1568 45.9356 25.2996 45.4608 26.515 45.4608C28.352 45.4608 30.0805 44.7466 31.3781 43.4487C32.6779 42.1489 33.3941 40.4206 33.3941 38.5815C33.3941 37.481 33.2029 36.4085 32.8248 35.3944C32.7383 35.1993 32.6559 34.9921 32.5754 34.7808H32.6096C50.6197 34.7808 65.2191 49.3804 65.2191 67.3903C65.2191 67.9597 65.2051 68.5251 65.1748 69.0886H51.1969C49.8691 69.0884 48.7887 70.1688 48.7887 71.497Z" fill="#6D81D5"/>
<path d="M55.843 73.9028H64.5693C61.5512 88.7903 48.3883 99.9995 32.6096 99.9995C31.1307 99.9995 29.674 99.9009 28.2475 99.7099C42.0422 97.8647 53.1064 87.3958 55.843 73.9028Z" fill="#5169CD"/>
<path d="M65.2191 67.3879C65.2191 67.9572 65.2051 68.5248 65.1748 69.0881H56.4484C56.4785 68.5248 56.4928 67.9572 56.4928 67.3879C56.4928 52.5629 46.5994 40.0459 33.0522 36.0861C32.9857 35.8527 32.9094 35.6213 32.8248 35.3939C32.7383 35.1988 32.6559 34.9916 32.5754 34.7803H32.6096C50.6197 34.7803 65.2191 49.3779 65.2191 67.3879Z" fill="#5169CD"/>
<path d="M47.2791 71.4958C47.2791 73.6593 49.0328 75.413 51.1963 75.413H64.2201C64.8561 72.9048 65.2002 70.281 65.2158 67.5786H51.1963C49.0328 67.5786 47.2791 69.3323 47.2791 71.4958Z" fill="#27E19D"/>
<path d="M56.4895 67.5786C56.4738 70.281 56.1295 72.905 55.4934 75.413H64.2194C64.8553 72.9048 65.1996 70.281 65.2153 67.5786H56.4895Z" fill="#26D192"/>
<path d="M43.4182 59.4612C43.4182 63.0022 40.5469 65.8735 37.0059 65.8735H20.1045C19.1176 65.8735 18.2225 66.273 17.5738 66.9216C16.9277 67.57 16.5258 68.463 16.5258 69.4522C16.5258 71.4284 18.1283 73.0284 20.1043 73.0284H21.8619C23.6242 73.0284 25.2221 73.7427 26.3779 74.8987C27.534 76.0548 28.2482 77.6503 28.2482 79.4147C28.2482 82.9417 25.3887 85.8013 21.8617 85.8013H5.69141C2.10098 80.5638 0.000396729 74.222 0.000396729 67.389C0.000396729 49.3786 14.599 34.7798 32.6096 34.7798C33.15 34.7798 33.6881 34.7938 34.2215 34.8196C34.6633 35.9897 34.9029 37.2587 34.9029 38.5815C34.9029 40.8983 33.9631 42.9966 32.4451 44.5146C30.9272 46.0325 28.8313 46.97 26.5145 46.97C25.6732 46.97 24.9143 47.3106 24.3645 47.8606C23.8147 48.4104 23.474 49.1718 23.474 50.0106C23.474 51.6884 24.8346 53.0487 26.5145 53.0487H37.0059C38.7752 53.0487 40.3801 53.7677 41.5408 54.9261C42.699 56.087 43.4182 57.6919 43.4182 59.4612Z" fill="#27E19D"/>
<path d="M34.9027 38.582C34.9027 40.8988 33.9629 42.9971 32.4449 44.515C30.927 46.033 28.8311 46.9705 26.5143 46.9705C25.6731 46.9705 24.9141 47.3111 24.3643 47.8611C23.8145 48.4109 23.4738 49.1723 23.4738 50.0111C23.4738 51.6889 24.8344 53.0492 26.5143 53.0492H20.2688C18.5887 53.0492 17.2283 51.6887 17.2283 50.0111C17.2283 49.1723 17.569 48.4109 18.119 47.8611C18.6688 47.3113 19.4277 46.9705 20.269 46.9705C22.5858 46.9705 24.6817 46.033 26.1996 44.515C27.7176 42.9971 28.6574 40.8988 28.6574 38.582C28.6574 37.3625 28.4531 36.1877 28.0746 35.0951C29.5572 34.8859 31.0705 34.7803 32.6096 34.7803C33.15 34.7803 33.6881 34.7943 34.2215 34.8201C34.6631 35.9902 34.9027 37.259 34.9027 38.582Z" fill="#26D192"/>
<path d="M43.4182 59.4611C43.4182 63.0021 40.5469 65.8734 37.0059 65.8734H30.7604C34.3014 65.8734 37.1727 63.0021 37.1727 59.4611C37.1727 57.6918 36.4537 56.0869 35.2953 54.9262C34.1346 53.7678 32.5297 53.0488 30.7604 53.0488H37.0059C38.7752 53.0488 40.3801 53.7678 41.5408 54.9262C42.699 56.0869 43.4182 57.6918 43.4182 59.4611Z" fill="#26D192"/>
<path d="M28.2485 79.4147C28.2485 82.9417 25.3889 85.8013 21.8619 85.8013H15.6164C19.1434 85.8013 22.0029 82.9417 22.0029 79.4147C22.0029 77.6501 21.2887 76.0546 20.1326 74.8987C18.9766 73.7427 17.3787 73.0284 15.6164 73.0284H13.8588C11.8826 73.0284 10.2803 71.4282 10.2803 69.4522C10.2803 68.463 10.682 67.5702 11.3283 66.9216C11.9768 66.2731 12.8721 65.8735 13.859 65.8735H20.1045C19.1176 65.8735 18.2225 66.2729 17.5738 66.9216C16.9277 67.57 16.5258 68.463 16.5258 69.4522C16.5258 71.4284 18.1283 73.0284 20.1043 73.0284H21.8619C23.6242 73.0284 25.2221 73.7427 26.3779 74.8987C27.5342 76.0546 28.2485 77.6501 28.2485 79.4147Z" fill="#26D192"/>
<path d="M44.4812 90.2601H40.2324C37.7701 90.2601 35.774 88.264 35.774 85.8017C35.774 83.3394 37.7701 81.3433 40.2324 81.3433H44.4812C46.9436 81.3433 48.9396 83.3394 48.9396 85.8017C48.9396 88.2638 46.9436 90.2601 44.4812 90.2601Z" fill="#27E19D"/>
<path d="M48.9398 85.8017C48.9398 87.0329 48.4418 88.1466 47.6334 88.9526C46.8252 89.7608 45.7113 90.2591 44.4801 90.2591H40.2318C40.0156 90.2591 39.8043 90.245 39.5975 90.212C40.5727 90.0733 41.4467 89.6198 42.1117 88.9526C42.9201 88.1468 43.4182 87.0329 43.4182 85.8017C43.4182 83.5554 41.7568 81.6991 39.5975 81.3913C39.8043 81.3585 40.0156 81.3442 40.2318 81.3442H44.4801C46.9426 81.3444 48.9398 83.3394 48.9398 85.8017Z" fill="#26D192"/>
<path d="M16.0535 57.9608H14.3797C13.5461 57.9608 12.8707 57.2852 12.8707 56.4519C12.8707 55.6185 13.5463 54.9429 14.3797 54.9429H16.0535C16.8871 54.9429 17.5625 55.6185 17.5625 56.4519C17.5625 57.2852 16.8869 57.9608 16.0535 57.9608Z" fill="#20C682"/>
<path d="M8.90176 64.5458H7.22793C6.39434 64.5458 5.71895 63.8702 5.71895 63.0368C5.71895 62.2034 6.39453 61.5278 7.22793 61.5278H8.90176C9.73535 61.5278 10.4107 62.2034 10.4107 63.0368C10.4107 63.8702 9.73535 64.5458 8.90176 64.5458Z" fill="#18B773"/>
<path d="M14.3795 80.3285H12.7055C11.8719 80.3285 11.1965 79.6529 11.1965 78.8195C11.1965 77.9861 11.8721 77.3105 12.7055 77.3105H14.3795C15.2131 77.3105 15.8885 77.9861 15.8885 78.8195C15.8887 79.6529 15.2131 80.3285 14.3795 80.3285Z" fill="#20C682"/>
<path d="M69.9731 60.052C86.556 60.052 99.9991 46.6089 99.9991 30.026C99.9991 13.4431 86.556 0 69.9731 0C53.3902 0 39.9471 13.4431 39.9471 30.026C39.9471 46.6089 53.3902 60.052 69.9731 60.052Z" fill="#FFD496"/>
<path d="M99.9996 30.0253C99.9996 46.6081 86.5559 60.0519 69.9731 60.0519C69.1117 60.0519 68.2576 60.0147 67.4158 59.944C82.8014 58.646 94.8816 45.747 94.8816 30.0253C94.8816 14.3038 82.8014 1.40635 67.4158 0.108301C68.2576 0.0375977 69.1117 0.000488281 69.9731 0.000488281C86.5559 0.000488281 99.9996 13.4425 99.9996 30.0253Z" fill="#FCC16D"/>
<path d="M69.9731 53.5754C82.979 53.5754 93.5225 43.032 93.5225 30.026C93.5225 17.02 82.979 6.47656 69.9731 6.47656C56.9671 6.47656 46.4236 17.02 46.4236 30.026C46.4236 43.032 56.9671 53.5754 69.9731 53.5754Z" fill="#FC9744"/>
<path d="M93.5221 30.0256C93.5221 43.0314 82.9789 53.5764 69.9729 53.5764C68.9045 53.5764 67.8529 53.5045 66.8229 53.3674C78.3391 51.8275 87.2203 41.9631 87.2203 30.0256C87.2203 18.0881 78.3391 8.22539 66.8229 6.68555C67.8527 6.54844 68.9045 6.47656 69.9729 6.47656C82.9789 6.47637 93.5221 17.0195 93.5221 30.0256Z" fill="#FB8627"/>
<path d="M69.9731 45.8276C78.7001 45.8276 85.7748 38.7529 85.7748 30.0259C85.7748 21.2988 78.7001 14.2241 69.9731 14.2241C61.246 14.2241 54.1713 21.2988 54.1713 30.0259C54.1713 38.7529 61.246 45.8276 69.9731 45.8276Z" fill="#FCB44D"/>
<path d="M85.7754 30.0254C85.7754 38.7523 78.6998 45.8279 69.9729 45.8279C67.6496 45.8279 65.4428 45.327 63.4563 44.4244C64.1983 44.5424 64.9606 44.6021 65.735 44.6021C73.785 44.6021 80.31 38.0754 80.31 30.0254C80.31 21.9754 73.7848 15.4504 65.735 15.4504C64.9588 15.4504 64.1947 15.5119 63.4512 15.6281C65.4393 14.7271 67.6481 14.2246 69.9729 14.2246C78.7 14.2246 85.7754 21.2984 85.7754 30.0254Z" fill="#FCA62F"/>
<path d="M76.5361 26.4293C76.5361 24.5074 75.4225 22.8414 73.8069 22.0408V20.4465C73.8069 19.6131 73.1313 18.9375 72.2979 18.9375C71.4645 18.9375 70.7889 19.6131 70.7889 20.4465V21.534H69.5924V20.4465C69.5924 19.6131 68.9168 18.9375 68.0834 18.9375C67.25 18.9375 66.5744 19.6131 66.5744 20.4465V21.534H66.0063C65.1727 21.534 64.4973 22.2096 64.4973 23.043V36.5881C64.4973 37.4215 65.1729 38.0971 66.0063 38.0971H66.5744V39.177C66.5744 40.0104 67.25 40.6859 68.0834 40.6859C68.9168 40.6859 69.5924 40.0104 69.5924 39.177V38.0971H70.7889V39.177C70.7889 40.0104 71.4645 40.6859 72.2979 40.6859C73.1313 40.6859 73.8069 40.0104 73.8069 39.177V37.5902C75.4223 36.7896 76.5361 35.1236 76.5361 33.2018C76.5361 31.8887 76.0154 30.6955 75.1709 29.8154C76.0154 28.9355 76.5361 27.7424 76.5361 26.4293ZM73.518 33.202C73.518 34.2371 72.676 35.0791 71.6408 35.0791H67.5149V31.3246H71.6408C72.676 31.3246 73.518 32.1668 73.518 33.202ZM67.5151 28.3066V24.5521H71.641C72.6762 24.5521 73.5182 25.3941 73.5182 26.4293C73.5182 27.4645 72.6762 28.3066 71.641 28.3066H67.5151Z" fill="#EA9024"/>
<path d="M29.7516 24.6025C32.3134 24.6025 34.3902 22.5257 34.3902 19.9639C34.3902 17.402 32.3134 15.3252 29.7516 15.3252C27.1897 15.3252 25.1129 17.402 25.1129 19.9639C25.1129 22.5257 27.1897 24.6025 29.7516 24.6025Z" fill="#23F1A8"/>
<path d="M34.3904 19.9632C34.3904 22.5259 32.3129 24.6021 29.7516 24.6021C28.8158 24.6021 27.9436 24.3241 27.2137 23.846C29.2428 23.7161 30.8504 22.0269 30.8504 19.9632C30.8504 17.8995 29.2428 16.2104 27.2123 16.0817C27.9422 15.6034 28.8143 15.3257 29.7516 15.3257C32.3129 15.3259 34.3904 17.4019 34.3904 19.9632Z" fill="#26D192"/>
<path d="M75.8951 93.4316C78.457 93.4316 80.5338 91.3548 80.5338 88.793C80.5338 86.2311 78.457 84.1543 75.8951 84.1543C73.3332 84.1543 71.2564 86.2311 71.2564 88.793C71.2564 91.3548 73.3332 93.4316 75.8951 93.4316Z" fill="#FCB44D"/>
<path d="M80.5342 88.7923C80.5342 91.355 78.4567 93.4312 75.8953 93.4312C74.9596 93.4312 74.0873 93.1532 73.3574 92.6751C75.3865 92.5452 76.9941 90.856 76.9941 88.7923C76.9941 86.7286 75.3865 85.0396 73.356 84.9108C74.0859 84.4325 74.958 84.1548 75.8953 84.1548C78.4567 84.1548 80.5342 86.231 80.5342 88.7923Z" fill="#FCA62F"/>
<path d="M94.6561 68.7388C97.2179 68.7388 99.2947 66.662 99.2947 64.1001C99.2947 61.5382 97.2179 59.4614 94.6561 59.4614C92.0942 59.4614 90.0174 61.5382 90.0174 64.1001C90.0174 66.662 92.0942 68.7388 94.6561 68.7388Z" fill="#23F1A8"/>
<path d="M99.2949 64.0994C99.2949 66.6621 97.2174 68.7383 94.656 68.7383C93.7203 68.7383 92.848 68.4605 92.1182 67.9822C94.1473 67.8523 95.7549 66.1631 95.7549 64.0994C95.7549 62.0357 94.1473 60.3467 92.1168 60.218C92.8467 59.7396 93.7187 59.4619 94.656 59.4619C97.2174 59.4619 99.2949 61.5381 99.2949 64.0994Z" fill="#26D192"/>
<path d="M8.90177 31.5918C11.4636 31.5918 13.5404 29.515 13.5404 26.9531C13.5404 24.3913 11.4636 22.3145 8.90177 22.3145C6.3399 22.3145 4.26309 24.3913 4.26309 26.9531C4.26309 29.515 6.3399 31.5918 8.90177 31.5918Z" fill="#FB4A59"/>
<path d="M13.5406 26.9524C13.5406 29.5151 11.4631 31.5913 8.90178 31.5913C7.96603 31.5913 7.09377 31.3134 6.36389 30.8353C8.39299 30.7054 10.0006 29.0161 10.0006 26.9524C10.0006 24.8888 8.39299 23.1997 6.36252 23.071C7.0924 22.5927 7.96447 22.3149 8.90178 22.3149C11.4631 22.3149 13.5406 24.3911 13.5406 26.9524Z" fill="#F82F40"/>
</svg>
