<svg width="100" height="100" viewBox="0 0 100 100" fill="none" xmlns="http://www.w3.org/2000/svg">
<g clip-path="url(#clip0_51_3478)">
<path d="M51.4325 4.67928V10.5987L52.609 31.2644C52.609 32.3591 52.2427 33.6918 53.3304 33.8177C61.5798 34.773 69.1333 42.8599 68.9316 51.4107C68.7273 60.0712 60.4876 68.3109 51.8271 68.5152C42.6308 68.7322 34.1249 60.1634 34.1249 51.0161C34.1249 49.9567 34.0298 48.9224 34.2231 47.9197H2.96157C2.89843 48.9434 2.8649 49.9756 2.8649 51.0161C2.8649 77.8393 24.6092 99.5836 51.4322 99.5836C78.1896 99.5836 100 77.7734 99.9998 51.0158C99.9998 24.953 79.47 3.68497 53.6994 2.50085C52.4627 2.44399 51.4325 3.44124 51.4325 4.67928Z" fill="url(#paint0_linear_51_3478)"/>
<path d="M51.6388 68.7106C42.5286 68.8228 33.9288 60.1002 33.9288 51.0159C33.9288 49.9565 34.0298 48.9222 34.2231 47.9194H2.96156C2.90685 48.8086 2.87587 49.7043 2.86823 50.6063L51.6388 99.3769V68.7106Z" fill="url(#paint1_linear_51_3478)"/>
<path d="M51.4325 10.5981V19.1274L52.4129 31.2638C52.4129 32.3585 52.9876 33.9787 54.0751 34.1048C62.3245 35.0601 68.8375 42.7925 68.6357 51.3432C68.4314 60.0038 60.2994 68.0081 51.6388 68.2125C42.4425 68.4295 34.321 60.1628 34.321 51.0156C34.321 49.9562 34.422 48.9219 34.6153 47.9191H11.1325C11.058 48.8989 11.0182 49.8881 11.0151 50.8872C10.9457 72.9468 28.7765 91.1097 50.8335 91.4289C73.4304 91.756 91.85 73.5376 91.85 51.0158C91.85 28.6932 73.7549 10.5981 51.4325 10.5981Z" fill="url(#paint2_linear_51_3478)"/>
<path d="M11.9618 59.6998L42.7547 90.4928C45.3631 91.0675 48.0649 91.389 50.8335 91.4292C51.1027 91.4332 51.3708 91.432 51.6388 91.4306V68.7106C42.5286 68.8228 34.1249 60.1002 34.1249 51.0159C34.1249 49.9565 34.2259 48.9222 34.4192 47.9194H11.1325C11.058 48.8992 11.0182 49.8885 11.0151 50.8875C11.0057 53.9104 11.3343 56.8592 11.9618 59.6998Z" fill="url(#paint3_linear_51_3478)"/>
<path d="M51.4325 18.9102V26.7384L52.2168 31.4602C52.2168 32.5549 52.2427 33.8876 53.3304 34.0135C61.5798 34.9688 68.7412 42.8596 68.5394 51.4104C68.3351 60.0709 60.4876 67.9184 51.827 68.1227C42.6308 68.3398 34.1249 60.1631 34.1249 51.0158C34.1249 49.9564 34.2259 48.9221 34.4192 47.9194H19.4739C19.3772 48.939 19.3268 49.9711 19.3268 51.0158C19.3268 68.7472 33.701 83.1215 51.4323 83.1215C69.1474 83.1217 83.5386 68.7304 83.5384 51.0154C83.538 33.2843 69.1637 18.9102 51.4325 18.9102Z" fill="url(#paint4_linear_51_3478)"/>
<path d="M51.4321 83.1216C51.5012 83.1216 51.5698 83.1194 51.6388 83.119V68.3185C42.5286 68.4306 34.1249 60.1002 34.1249 51.0159C34.1249 49.9565 34.2259 48.9222 34.4192 47.9194H19.4739C19.3772 48.939 19.3268 49.9712 19.3268 51.0159C19.3266 68.7473 33.701 83.1216 51.4321 83.1216Z" fill="url(#paint5_linear_51_3478)"/>
<path d="M51.4326 26.7007V32.6368C51.4326 33.7315 52.2427 34.6721 53.3304 34.7979C61.5798 35.7532 67.9569 42.8597 67.7551 51.4105C67.5508 60.0711 60.4877 67.1342 51.8271 67.3385C42.6308 67.5556 35.1053 60.1632 35.1053 51.016C35.1053 49.9566 35.2063 48.9223 35.3996 47.9195H27.3127C27.1845 48.9326 27.1172 49.967 27.1172 51.016C27.1172 64.5597 38.192 75.5181 51.7792 75.3289C64.8751 75.1466 75.563 64.4585 75.7455 51.3626C75.9347 37.7754 64.9763 26.7007 51.4326 26.7007Z" fill="url(#paint6_linear_51_3478)"/>
<path d="M51.6388 75.3289V67.3381C42.5286 67.4502 35.1053 60.1002 35.1053 51.0159C35.1053 49.9565 35.2063 48.9222 35.3996 47.9194H27.3127C27.1845 48.9326 27.1172 49.9669 27.1172 51.0159C27.1172 64.513 38.1159 75.441 51.6388 75.3289Z" fill="url(#paint7_linear_51_3478)"/>
<path d="M21.8531 0.416504H16.4761C14.1445 0.416504 12.2545 2.3065 12.2545 4.63807V5.58905C12.2545 7.59944 12.5543 9.59866 13.1443 11.5206C13.7341 13.4426 14.0341 15.4418 14.0341 17.4522V27.4463H24.2949V17.4522C24.2949 15.4418 24.5947 13.4426 25.1847 11.5206C25.7745 9.59866 26.0745 7.59944 26.0745 5.58905V4.63807C26.0747 2.3065 24.1845 0.416504 21.8531 0.416504Z" fill="url(#paint8_linear_51_3478)"/>
<path d="M2.75174 27.8438V50.1843C2.75174 50.6437 3.12409 51.0161 3.5835 51.0161H7.49037C7.8286 51.0161 8.13311 50.8114 8.26056 50.4983L8.92076 48.8779C9.20919 48.17 10.2196 48.1932 10.4749 48.9137L11.0241 50.4626C11.1417 50.7945 11.4559 51.0163 11.808 51.0163H20.6802C20.9976 51.0163 21.2872 50.8357 21.427 50.5506L22.1188 49.1396C22.3617 48.6439 23.0115 48.5181 23.4219 48.8875C23.7855 49.2145 24.3515 49.159 24.6445 48.7673L25.0337 48.2469C25.4521 47.6873 26.3323 47.8618 26.5055 48.5386L26.9796 50.3908C27.0739 50.7588 27.4055 51.0163 27.7853 51.0163H34.7455C35.2049 51.0163 35.5772 50.6439 35.5772 50.1845V27.8438H2.75174Z" fill="url(#paint9_linear_51_3478)"/>
<path d="M2.75174 31.0473L21.6994 49.9949L22.1188 49.1392C22.3617 48.6435 23.0115 48.5177 23.4219 48.8871C23.7855 49.2141 24.3515 49.1586 24.6445 48.7669L25.0337 48.2465C25.4521 47.6869 26.3323 47.8614 26.5057 48.5382L26.9798 50.3904C27.0741 50.7584 27.4057 51.0159 27.7855 51.0159H34.7457C35.2051 51.0159 35.5774 50.6435 35.5774 50.1841V27.8438H2.75174V31.0473Z" fill="url(#paint10_linear_51_3478)"/>
<path d="M31.9735 27.8438H6.3559V51.0161H7.49041C7.82864 51.0161 8.13315 50.8114 8.2606 50.4981L8.9208 48.8777C9.20923 48.1698 10.2196 48.193 10.4749 48.9136L11.0241 50.4624C11.1418 50.7943 11.4559 51.0161 11.8081 51.0161H20.6802C20.9977 51.0161 21.2873 50.8355 21.4271 50.5504L22.1188 49.1394C22.3618 48.6437 23.0116 48.5179 23.422 48.8873C23.7855 49.2143 24.3516 49.1588 24.6445 48.7671L25.0337 48.2467C25.4522 47.6871 26.3324 47.8616 26.5057 48.5385L26.9798 50.3906C27.0741 50.7587 27.4057 51.0161 27.7855 51.0161H31.9733V27.8438H31.9735Z" fill="url(#paint11_linear_51_3478)"/>
<path d="M25.5939 27.8438H12.7353V51.0161H20.6804C20.9978 51.0161 21.2874 50.8355 21.4272 50.5504L22.119 49.1394C22.362 48.6437 23.0118 48.5179 23.4222 48.8873C23.7857 49.2143 24.3518 49.1588 24.6447 48.7671L25.0339 48.2467C25.1806 48.0506 25.3843 47.9465 25.5941 47.9206L25.5939 27.8438Z" fill="url(#paint12_linear_51_3478)"/>
<path d="M35.7406 30.8846H2.58863C1.15902 30.8846 0 29.7256 0 28.2959V26.574C0 25.1444 1.15902 23.9854 2.58863 23.9854H35.7406C37.1702 23.9854 38.3292 25.1444 38.3292 26.574V28.2959C38.3292 29.7256 37.1702 30.8846 35.7406 30.8846Z" fill="url(#paint13_linear_51_3478)"/>
</g>
<defs>
<linearGradient id="paint0_linear_51_3478" x1="37.9116" y1="37.4954" x2="97.1575" y2="96.7412" gradientUnits="userSpaceOnUse">
<stop stop-color="#FF755C"/>
<stop offset="1" stop-color="#FF4181"/>
</linearGradient>
<linearGradient id="paint1_linear_51_3478" x1="27.4018" y1="60.0061" x2="19.2735" y2="40.9469" gradientUnits="userSpaceOnUse">
<stop stop-color="#843561" stop-opacity="0"/>
<stop offset="1" stop-color="#3A2F4D"/>
</linearGradient>
<linearGradient id="paint2_linear_51_3478" x1="40.0069" y1="39.5619" x2="89.569" y2="89.124" gradientUnits="userSpaceOnUse">
<stop stop-color="#FFCE47"/>
<stop offset="1" stop-color="#FF9356"/>
</linearGradient>
<linearGradient id="paint3_linear_51_3478" x1="33.5065" y1="68.0261" x2="20.0527" y2="37.8955" gradientUnits="userSpaceOnUse">
<stop stop-color="#FF755C" stop-opacity="0"/>
<stop offset="1" stop-color="#FF4181"/>
</linearGradient>
<linearGradient id="paint4_linear_51_3478" x1="38.3733" y1="37.9566" x2="74.119" y2="73.7023" gradientUnits="userSpaceOnUse">
<stop stop-color="#E4E08E"/>
<stop offset="1" stop-color="#6FA953"/>
</linearGradient>
<linearGradient id="paint5_linear_51_3478" x1="37.927" y1="68.2743" x2="24.83" y2="43.621" gradientUnits="userSpaceOnUse">
<stop stop-color="#43765A" stop-opacity="0"/>
<stop offset="1" stop-color="#43765A"/>
</linearGradient>
<linearGradient id="paint6_linear_51_3478" x1="41.2437" y1="40.8272" x2="68.5976" y2="68.1811" gradientUnits="userSpaceOnUse">
<stop stop-color="#7ACBFF"/>
<stop offset="1" stop-color="#45A2E0"/>
</linearGradient>
<linearGradient id="paint7_linear_51_3478" x1="40.7039" y1="64.7365" x2="30.4735" y2="47.0787" gradientUnits="userSpaceOnUse">
<stop stop-color="#7ACBFF" stop-opacity="0"/>
<stop offset="1" stop-color="#2F73A0"/>
</linearGradient>
<linearGradient id="paint8_linear_51_3478" x1="12.458" y1="13.9314" x2="29.8365" y2="13.9314" gradientUnits="userSpaceOnUse">
<stop stop-color="#FFCE47"/>
<stop offset="1" stop-color="#FF9356"/>
</linearGradient>
<linearGradient id="paint9_linear_51_3478" x1="17.5094" y1="37.8483" x2="38.3425" y2="54.9932" gradientUnits="userSpaceOnUse">
<stop stop-color="#FFDECF"/>
<stop offset="1" stop-color="#FAA68E"/>
</linearGradient>
<linearGradient id="paint10_linear_51_3478" x1="19.1647" y1="37.3853" x2="19.1647" y2="23.9555" gradientUnits="userSpaceOnUse">
<stop stop-color="#FF9356" stop-opacity="0"/>
<stop offset="1" stop-color="#FF4181"/>
</linearGradient>
<linearGradient id="paint11_linear_51_3478" x1="16.622" y1="33.8265" x2="32.2718" y2="68.3157" gradientUnits="userSpaceOnUse">
<stop stop-color="#FF9356" stop-opacity="0"/>
<stop offset="1" stop-color="#FF4181"/>
</linearGradient>
<linearGradient id="paint12_linear_51_3478" x1="16.2753" y1="42.8285" x2="4.51313" y2="62.9637" gradientUnits="userSpaceOnUse">
<stop stop-color="#FF9356" stop-opacity="0"/>
<stop offset="1" stop-color="#FF4181"/>
</linearGradient>
<linearGradient id="paint13_linear_51_3478" x1="19.1647" y1="23.7883" x2="19.1647" y2="29.7461" gradientUnits="userSpaceOnUse">
<stop stop-color="#FFCE47"/>
<stop offset="1" stop-color="#FF9356"/>
</linearGradient>
<clipPath id="clip0_51_3478">
<rect width="100" height="100" fill="white"/>
</clipPath>
</defs>
</svg>
