<svg width="100" height="100" viewBox="0 0 100 100" fill="none" xmlns="http://www.w3.org/2000/svg">
<path d="M28.3417 62.8064C27.861 62.8064 27.372 62.6889 26.9226 62.4372C25.5066 61.6529 24.9977 59.8684 25.7843 58.4546L37.2482 37.6226C38.0325 36.2119 39.8171 35.6916 41.2308 36.4843C42.6468 37.2678 43.1565 39.0531 42.3699 40.4668L30.9052 61.2989C30.3703 62.2625 29.3724 62.8064 28.3417 62.8064Z" fill="#A8EBFA"/>
<path d="M71.6583 62.8064C70.6283 62.8064 69.6297 62.2625 69.0948 61.2989L57.6301 40.4668C56.8436 39.0531 57.3532 37.2678 58.7692 36.4843C60.1852 35.6916 61.9675 36.2119 62.7518 37.6226L74.2157 58.4546C75.0023 59.8676 74.4934 61.6529 73.0774 62.4372C72.628 62.6889 72.139 62.8064 71.6583 62.8064Z" fill="#76E2F8"/>
<path d="M64.6484 73.6328C64.6484 75.2731 63.3598 76.5625 61.7188 76.5625H38.2812C36.6402 76.5625 35.3516 75.2731 35.3516 73.6328C35.3516 71.9917 36.6402 70.7031 38.2812 70.7031H61.7188C63.3598 70.7031 64.6484 71.9917 64.6484 73.6328Z" fill="#A8EBFA"/>
<path d="M64.6484 73.6328C64.6484 75.2731 63.3598 76.5625 61.7188 76.5625H50V70.7031H61.7188C63.3598 70.7031 64.6484 71.9917 64.6484 73.6328Z" fill="#76E2F8"/>
<path d="M99.5895 65.078L89.5508 64.8438L79.2969 76.5625L73.4375 87.9883L79.2969 100C79.8241 100 80.2925 99.8825 80.7617 99.5895L98.5939 89.1602C98.7114 89.1014 98.8281 88.9847 98.9456 88.9259C99.5895 88.34 100 87.4611 100 86.6409V66.5428C100 66.0156 99.8825 65.4884 99.5895 65.078Z" fill="#5A69E6"/>
<path d="M69.043 64.8438L59.1995 65.078C58.9066 65.5472 58.7891 66.0156 58.7891 66.5428V86.6402C58.7891 87.4611 59.1995 88.34 59.8434 88.9259C59.9609 88.9839 77.832 99.5895 77.832 99.5895C78.3012 99.8825 78.7697 100 79.2969 100V76.5625L69.043 64.8438Z" fill="#7984EB"/>
<path d="M99.5895 65.078L79.2969 76.5625L59.1995 65.078C59.2575 65.02 59.3163 64.9025 59.375 64.8438C59.6092 64.492 59.9022 64.2578 60.2539 64.0236L77.832 53.5355C78.3012 53.2425 78.8277 53.125 79.2969 53.125C79.7661 53.125 80.2925 53.2425 80.7617 53.5355L98.5352 64.0236C98.8869 64.2578 99.1798 64.5508 99.4141 64.8438C99.4728 64.9025 99.5308 65.02 99.5895 65.078Z" fill="#979FEF"/>
<path d="M40.8005 65.078L30.957 64.8438L20.7031 76.5625L14.8438 87.9883L20.7031 100C21.2303 100 21.6988 99.8825 22.168 99.5895L39.8048 89.1602C39.9223 89.1014 40.0391 88.9847 40.1566 88.9259C40.8005 88.34 41.2109 87.4611 41.2109 86.6409V66.5428C41.2109 66.0156 41.0934 65.4884 40.8005 65.078Z" fill="#5A69E6"/>
<path d="M10.4492 64.8438L0.410461 65.078C0.117493 65.5472 0 66.0156 0 66.5428V86.6402C0 87.4611 0.410461 88.34 1.05438 88.9259C1.17188 88.9839 19.2383 99.5895 19.2383 99.5895C19.7075 99.8825 20.1759 100 20.7031 100V76.5625L10.4492 64.8438Z" fill="#7984EB"/>
<path d="M40.8005 65.078L20.7031 76.5625L0.410461 65.078C0.468445 65.02 0.527191 64.9025 0.585938 64.8438C0.82016 64.492 1.11313 64.2578 1.46484 64.0236L19.2383 53.5355C19.7075 53.2425 20.2339 53.125 20.7031 53.125C21.1723 53.125 21.6988 53.2425 22.168 53.5355L39.7461 64.0236C40.0978 64.2578 40.3908 64.5508 40.625 64.8438C40.6837 64.9025 40.7417 65.02 40.8005 65.078Z" fill="#B5BAF3"/>
<path d="M70.0974 12.1483L60.2539 11.9141L50 23.6328L44.1406 35.0586L50 47.0703C50.5272 47.0703 50.9956 46.9528 51.4648 46.6599L69.1017 36.2305C69.2192 36.1717 69.3359 36.055 69.4534 35.9962C70.0974 35.4103 70.5078 34.5314 70.5078 33.7112V13.6131C70.5078 13.0859 70.3903 12.5587 70.0974 12.1483Z" fill="#5A69E6"/>
<path d="M39.7461 11.9141L29.9026 12.1483C29.6097 12.6175 29.4922 13.0859 29.4922 13.6131V33.7105C29.4922 34.5314 29.9026 35.4103 30.5466 35.9962C30.6641 36.0542 48.5352 46.6599 48.5352 46.6599C49.0044 46.9528 49.4728 47.0703 50 47.0703V23.6328L39.7461 11.9141Z" fill="#7984EB"/>
<path d="M70.0974 12.1483L50 23.6328L29.9026 12.1483C29.9606 12.0903 30.0194 11.9728 30.0781 11.9141C30.3123 11.5623 30.6053 11.3281 30.957 11.0939L48.5352 0.410461C49.0044 0.117493 49.5308 0 50 0C50.4692 0 50.9956 0.117493 51.4648 0.410461L69.043 11.0939C69.3947 11.3281 69.6877 11.6211 69.9219 11.9141C69.9806 11.9728 70.0386 12.0903 70.0974 12.1483Z" fill="#B5BAF3"/>
<path d="M70.0974 12.1483L50 23.6328V0C50.4692 0 50.9956 0.117493 51.4648 0.410461L69.043 11.0939C69.3947 11.3281 69.6877 11.6211 69.9219 11.9141C69.9806 11.9728 70.0386 12.0903 70.0974 12.1483Z" fill="#979FEF"/>
</svg>
