<svg width="100" height="100" viewBox="0 0 100 100" fill="none" xmlns="http://www.w3.org/2000/svg">
<path d="M62.5 95.3125C80.6218 95.3125 95.3125 80.6218 95.3125 62.5C95.3125 44.3782 80.6218 29.6875 62.5 29.6875C44.3782 29.6875 29.6875 44.3782 29.6875 62.5C29.6875 80.6218 44.3782 95.3125 62.5 95.3125Z" fill="#FFFA48"/>
<path d="M93.0156 74.5469C88.2344 86.7031 76.375 95.3125 62.5 95.3125C44.375 95.3125 29.6875 80.625 29.6875 62.5C29.6875 49.7344 36.9687 38.6719 47.6094 33.2656C46.125 37 45.3125 41.0625 45.3125 45.3125C45.3125 63.4375 60 78.125 78.125 78.125C83.4844 78.125 88.5469 76.8437 93.0156 74.5469Z" fill="#FCEA42"/>
<path d="M62.5 89.0625C77.1701 89.0625 89.0625 77.1701 89.0625 62.5C89.0625 47.8299 77.1701 35.9375 62.5 35.9375C47.8299 35.9375 35.9375 47.8299 35.9375 62.5C35.9375 77.1701 47.8299 89.0625 62.5 89.0625Z" fill="#FDC741"/>
<path d="M78.125 78.1249C60 78.1249 45.3125 63.4374 45.3125 45.3124C45.3125 44.2374 45.3656 43.1749 45.4672 42.1265C39.6453 46.9999 35.9375 54.314 35.9375 62.4999C35.9375 77.1702 47.8297 89.0624 62.5 89.0624C71.5953 89.0624 79.6156 84.4858 84.4031 77.5155C82.3703 77.9108 80.2734 78.1249 78.125 78.1249Z" fill="#EFAD1B"/>
<path d="M42.1875 64.0625C43.0504 64.0625 43.75 63.3629 43.75 62.5C43.75 61.6371 43.0504 60.9375 42.1875 60.9375C41.3246 60.9375 40.625 61.6371 40.625 62.5C40.625 63.3629 41.3246 64.0625 42.1875 64.0625Z" fill="#FFFA48"/>
<path d="M82.8125 64.0625C83.6754 64.0625 84.375 63.3629 84.375 62.5C84.375 61.6371 83.6754 60.9375 82.8125 60.9375C81.9496 60.9375 81.25 61.6371 81.25 62.5C81.25 63.3629 81.9496 64.0625 82.8125 64.0625Z" fill="#FFFA48"/>
<path d="M54.6875 70.3125C54.8063 70.3125 54.9266 70.2984 55.0469 70.2719C55.7516 70.1031 56.25 69.475 56.25 68.75V56.25C56.25 55.3859 55.55 54.6875 54.6875 54.6875C53.825 54.6875 53.125 55.3859 53.125 56.25V62.1312L49.8359 55.5516C49.5109 54.9031 48.7891 54.5703 48.0781 54.7297C47.3734 54.8969 46.875 55.525 46.875 56.25V68.75C46.875 69.6141 47.575 70.3125 48.4375 70.3125C49.3 70.3125 50 69.6141 50 68.75V62.8687L53.2891 69.4484C53.5594 69.9875 54.1047 70.3125 54.6875 70.3125Z" fill="#FFFA48"/>
<path d="M67.1875 57.8125C68.05 57.8125 68.75 57.1141 68.75 56.25C68.75 55.3859 68.05 54.6875 67.1875 54.6875H60.9375C60.075 54.6875 59.375 55.3859 59.375 56.25V68.75C59.375 69.6141 60.075 70.3125 60.9375 70.3125C61.8 70.3125 62.5 69.6141 62.5 68.75V64.0625H65.625C66.4875 64.0625 67.1875 63.3641 67.1875 62.5C67.1875 61.6359 66.4875 60.9375 65.625 60.9375H62.5V57.8125H67.1875Z" fill="#FFFA48"/>
<path d="M79.6875 54.6875H73.4375C72.575 54.6875 71.875 55.3859 71.875 56.25C71.875 57.1141 72.575 57.8125 73.4375 57.8125H75V68.75C75 69.6141 75.7 70.3125 76.5625 70.3125C77.425 70.3125 78.125 69.6141 78.125 68.75V57.8125H79.6875C80.55 57.8125 81.25 57.1141 81.25 56.25C81.25 55.3859 80.55 54.6875 79.6875 54.6875Z" fill="#FFFA48"/>
<path d="M53.9922 51.2997L62.5 45.6278L71.0078 51.2997C71.275 51.4763 71.5766 51.5622 71.8734 51.5622C72.3781 51.5622 72.8734 51.3185 73.175 50.8669C73.6531 50.1481 73.4594 49.1794 72.7422 48.6997L63.3672 42.4497C62.8422 42.0981 62.1594 42.0981 61.6344 42.4497L52.2594 48.6997C51.5422 49.1794 51.3484 50.1481 51.8266 50.8669C52.3031 51.5841 53.2719 51.7763 53.9922 51.2997Z" fill="#FFFA48"/>
<path d="M71.0078 73.7L62.5 79.3719L53.9922 73.7C53.2719 73.2203 52.3031 73.4156 51.825 74.1328C51.3469 74.8516 51.5406 75.8203 52.2578 76.3L61.6328 82.55C61.8953 82.725 62.1984 82.8125 62.5 82.8125C62.8016 82.8125 63.1047 82.725 63.3672 82.55L72.7422 76.3C73.4594 75.8203 73.6531 74.8516 73.175 74.1328C72.6953 73.4156 71.725 73.2203 71.0078 73.7Z" fill="#FFFA48"/>
<path d="M42.1875 64.0625C43.0504 64.0625 43.75 63.3629 43.75 62.5C43.75 61.6371 43.0504 60.9375 42.1875 60.9375C41.3246 60.9375 40.625 61.6371 40.625 62.5C40.625 63.3629 41.3246 64.0625 42.1875 64.0625Z" fill="#FCEA42"/>
<path d="M56.0156 69.5625C55.8125 69.9063 55.4687 70.1719 55.0469 70.2656C54.9219 70.2969 54.8125 70.3125 54.6875 70.3125C54.1094 70.3125 53.5625 69.9844 53.2969 69.4531L50 62.875V68.75C50 69.6094 49.2969 70.3125 48.4375 70.3125C47.5781 70.3125 46.875 69.6094 46.875 68.75V56.25C46.875 56.0469 46.9062 55.8594 46.9844 55.6875C48.7812 61.0625 51.9219 65.8281 56.0156 69.5625Z" fill="#FCEA42"/>
<path d="M71.125 77.3592L63.3594 82.5467C63.1094 82.7186 62.7969 82.8123 62.5 82.8123C62.2031 82.8123 61.8906 82.7186 61.6406 82.5467L52.2656 76.2967C51.5469 75.828 51.3437 74.8592 51.8281 74.1405C52.2969 73.4217 53.2656 73.2186 53.9844 73.703L62.5 79.3748L67.1875 76.2498C68.4687 76.703 69.7812 77.078 71.125 77.3592Z" fill="#FCEA42"/>
<path d="M67.1875 4.6875H85.9375C91.1156 4.6875 95.3125 8.88438 95.3125 14.0625V26.5625C95.3125 31.7406 91.1156 35.9375 85.9375 35.9375H73.4375L67.1875 45.3125V35.9375C62.0094 35.9375 57.8125 31.7406 57.8125 26.5625V14.0625C57.8125 8.88438 62.0094 4.6875 67.1875 4.6875Z" fill="#ADE8F4"/>
<path d="M68.75 17.1875V4.6875H67.1875C62.0094 4.6875 57.8125 8.88438 57.8125 14.0625V26.5625C57.8125 31.7406 62.0094 35.9375 67.1875 35.9375V45.3125L73.4375 35.9375H85.9375C91.1156 35.9375 95.3125 31.7406 95.3125 26.5625H78.125C72.9469 26.5625 68.75 22.3656 68.75 17.1875Z" fill="#48CAE4"/>
<path d="M67.9688 14.0625H71.875C71.875 12.3359 73.2734 10.9375 75 10.9375H78.125C79.8516 10.9375 81.25 12.3359 81.25 14.0625H85.1562C86.8828 14.0625 88.2812 15.4609 88.2812 17.1875V26.5625C88.2812 28.2891 86.8828 29.6875 85.1562 29.6875H67.9688C66.2422 29.6875 64.8438 28.2891 64.8438 26.5625V17.1875C64.8438 15.4609 66.2422 14.0625 67.9688 14.0625Z" fill="#93999A"/>
<path d="M76.5625 25C78.2884 25 79.6875 23.6009 79.6875 21.875C79.6875 20.1491 78.2884 18.75 76.5625 18.75C74.8366 18.75 73.4375 20.1491 73.4375 21.875C73.4375 23.6009 74.8366 25 76.5625 25Z" fill="#ADE8F4"/>
<path d="M74.3531 19.6655C73.1328 20.8858 73.1328 22.864 74.3531 24.0843C75.5734 25.3046 77.5516 25.3046 78.7719 24.0843L74.3531 19.6655Z" fill="#48CAE4"/>
<path d="M68.75 17.1875V14.0625H67.9688C66.2422 14.0625 64.8438 15.4609 64.8438 17.1875V26.5625C64.8438 28.2891 66.2422 29.6875 67.9688 29.6875H85.1562C86.8828 29.6875 88.2812 28.2891 88.2812 26.5625H78.125C72.9469 26.5625 68.75 22.3656 68.75 17.1875Z" fill="#656B76"/>
<path d="M49.3156 38.3297C51.6828 35.5906 53.125 32.0297 53.125 28.125C53.125 19.4953 46.1297 12.5 37.5 12.5C28.8703 12.5 21.875 19.4953 21.875 28.125C21.875 36.7547 28.8703 43.75 37.5 43.75C39.9297 43.75 42.2219 43.1797 44.2734 42.1891L51.5625 45.3125L49.3156 38.3297Z" fill="#ADE8F4"/>
<path d="M37.5 37.5L29.6875 32.8125V23.4375L37.5 28.125V37.5Z" fill="#FDC741"/>
<path d="M37.5 37.5L45.3125 32.8125V23.4375L37.5 28.125V37.5Z" fill="#FCEA42"/>
<path d="M29.6875 23.4375L37.5 28.125L45.3125 23.4375L37.5 18.75L29.6875 23.4375Z" fill="#FFFA48"/>
<path d="M50.2359 37.1485C47.8344 38.3673 45.0969 39.0626 42.1875 39.0626C32.6953 39.0626 25 31.7173 25 22.6563C25 20.9813 25.2656 19.3657 25.7547 17.8423C23.3469 20.5923 21.875 24.1829 21.875 28.1251C21.875 36.7548 28.8703 43.7501 37.5 43.7501C39.9297 43.7501 42.2219 43.1798 44.2734 42.1892L51.5625 45.3126L49.3156 38.3298C49.6422 37.9517 49.9469 37.5563 50.2359 37.1485Z" fill="#48CAE4"/>
<path d="M35.9375 54.6875V35.9375C35.9375 34.2109 34.5391 32.8125 32.8125 32.8125H7.8125C6.08594 32.8125 4.6875 34.2109 4.6875 35.9375V67.1875C4.6875 68.9141 6.08594 70.3125 7.8125 70.3125H32.8125C34.5391 70.3125 35.9375 68.9141 35.9375 67.1875V62.5H43.75L35.9375 54.6875Z" fill="#E9F1F2"/>
<path d="M25 54.6875C19.8219 54.6875 15.625 50.4906 15.625 45.3125V32.8125H7.8125C6.08594 32.8125 4.6875 34.2109 4.6875 35.9375V67.1875C4.6875 68.9141 6.08594 70.3125 7.8125 70.3125H32.8125C34.5391 70.3125 35.9375 68.9141 35.9375 67.1875V62.5H43.75L35.9375 54.6875H25Z" fill="#D0D8DA"/>
<path d="M10.9375 39.0625H29.6875V64.0625H10.9375V39.0625Z" fill="#48CAE4"/>
<path d="M25 54.6875C19.8219 54.6875 15.625 50.4906 15.625 45.3125V39.0625H10.9375V64.0625H29.6875V54.6875H25Z" fill="#00B4D8"/>
<path d="M23.4375 43.75H20.3125C19.45 43.75 18.75 44.4484 18.75 45.3125C18.75 46.1766 19.45 46.875 20.3125 46.875H23.4375C24.3 46.875 25 46.1766 25 45.3125C25 44.4484 24.3 43.75 23.4375 43.75Z" fill="#FFFA48"/>
<path d="M23.4375 50H17.1875C16.325 50 15.625 50.6984 15.625 51.5625C15.625 52.4266 16.325 53.125 17.1875 53.125H23.4375C24.3 53.125 25 52.4266 25 51.5625C25 50.6984 24.3 50 23.4375 50Z" fill="#FFFA48"/>
<path d="M23.4375 56.25H17.1875C16.325 56.25 15.625 56.9484 15.625 57.8125C15.625 58.6766 16.325 59.375 17.1875 59.375H23.4375C24.3 59.375 25 58.6766 25 57.8125C25 56.9484 24.3 56.25 23.4375 56.25Z" fill="#FCEA42"/>
<path d="M17.1875 53.1251H19.8219C18.6359 52.3376 17.6453 51.2845 16.9219 50.0532C16.1906 50.1845 15.625 50.7938 15.625 51.5626C15.625 52.4267 16.325 53.1251 17.1875 53.1251Z" fill="#FCEA42"/>
</svg>
