<svg width="100" height="100" viewBox="0 0 100 100" fill="none" xmlns="http://www.w3.org/2000/svg">
<path d="M57.8125 21.875H42.1875C41.6953 21.875 41.2328 21.6438 40.9375 21.25L32.0312 9.375H10.9375C10.075 9.375 9.375 8.675 9.375 7.8125C9.375 6.95 10.075 6.25 10.9375 6.25H32.8125C33.3047 6.25 33.7672 6.48125 34.0625 6.875L42.9688 18.75H57.0312L65.9375 6.875C66.2328 6.48125 66.6969 6.25 67.1875 6.25H89.0625C89.9266 6.25 90.625 6.95 90.625 7.8125C90.625 8.675 89.9266 9.375 89.0625 9.375H67.9688L59.0625 21.25C58.7672 21.6438 58.3031 21.875 57.8125 21.875Z" fill="#FDC741"/>
<path d="M67.1875 34.375H32.8125C32.3563 34.375 31.9234 34.1766 31.6266 33.8297L22.7188 23.4375H17.1875C16.325 23.4375 15.625 22.7375 15.625 21.875C15.625 21.0125 16.325 20.3125 17.1875 20.3125H23.4375C23.8938 20.3125 24.3266 20.5109 24.6234 20.8578L33.5312 31.25H66.4688L75.3766 20.8578C75.6734 20.5109 76.1063 20.3125 76.5625 20.3125H82.8125C83.6766 20.3125 84.375 21.0125 84.375 21.875C84.375 22.7375 83.6766 23.4375 82.8125 23.4375H77.2812L68.3734 33.8297C68.0766 34.1766 67.6437 34.375 67.1875 34.375Z" fill="#FDC741"/>
<path d="M67.1875 51.5625H32.8125C32.3203 51.5625 31.8578 51.3312 31.5625 50.9375L22.6562 39.0625H10.9375C10.075 39.0625 9.375 38.3625 9.375 37.5C9.375 36.6375 10.075 35.9375 10.9375 35.9375H23.4375C23.9297 35.9375 24.3922 36.1687 24.6875 36.5625L33.5938 48.4375H66.4062L75.3125 36.5625C75.6063 36.1687 76.0703 35.9375 76.5625 35.9375H89.0625C89.9266 35.9375 90.625 36.6375 90.625 37.5C90.625 38.3625 89.9266 39.0625 89.0625 39.0625H77.3438L68.4375 50.9375C68.1422 51.3312 67.6781 51.5625 67.1875 51.5625Z" fill="#FDC741"/>
<path d="M89.0625 93.75H67.1875C66.6969 93.75 66.2328 93.5187 65.9375 93.125L57.0312 81.25H42.9688L34.0625 93.125C33.7672 93.5187 33.3047 93.75 32.8125 93.75H10.9375C10.075 93.75 9.375 93.05 9.375 92.1875C9.375 91.325 10.075 90.625 10.9375 90.625H32.0312L40.9375 78.75C41.2313 78.3563 41.6953 78.125 42.1875 78.125H57.8125C58.3031 78.125 58.7672 78.3563 59.0625 78.75L67.9688 90.625H89.0625C89.9266 90.625 90.625 91.325 90.625 92.1875C90.625 93.05 89.9266 93.75 89.0625 93.75Z" fill="#FDC741"/>
<path d="M82.8125 79.6875H76.5625C76.1063 79.6875 75.6734 79.4891 75.3766 79.1422L66.4688 68.75H33.5312L24.6234 79.1422C24.3266 79.4891 23.8938 79.6875 23.4375 79.6875H17.1875C16.325 79.6875 15.625 78.9875 15.625 78.125C15.625 77.2625 16.325 76.5625 17.1875 76.5625H22.7188L31.6266 66.1703C31.9234 65.8234 32.3563 65.625 32.8125 65.625H67.1875C67.6437 65.625 68.0766 65.8234 68.3734 66.1703L77.2812 76.5625H82.8125C83.6766 76.5625 84.375 77.2625 84.375 78.125C84.375 78.9875 83.6766 79.6875 82.8125 79.6875Z" fill="#FDC741"/>
<path d="M89.0625 64.0625H76.5625C76.0719 64.0625 75.6078 63.8312 75.3125 63.4375L66.4062 51.5625H33.5938L24.6875 63.4375C24.3922 63.8312 23.9297 64.0625 23.4375 64.0625H10.9375C10.075 64.0625 9.375 63.3625 9.375 62.5C9.375 61.6375 10.075 60.9375 10.9375 60.9375H22.6562L31.5625 49.0625C31.8563 48.6687 32.3203 48.4375 32.8125 48.4375H67.1875C67.6781 48.4375 68.1422 48.6687 68.4375 49.0625L77.3438 60.9375H89.0625C89.9266 60.9375 90.625 61.6375 90.625 62.5C90.625 63.3625 89.9266 64.0625 89.0625 64.0625Z" fill="#FDC741"/>
<path d="M92.1875 10.9375C93.9134 10.9375 95.3125 9.53839 95.3125 7.8125C95.3125 6.08661 93.9134 4.6875 92.1875 4.6875C90.4616 4.6875 89.0625 6.08661 89.0625 7.8125C89.0625 9.53839 90.4616 10.9375 92.1875 10.9375Z" fill="#FFFA48"/>
<path d="M85.9375 25C87.6634 25 89.0625 23.6009 89.0625 21.875C89.0625 20.1491 87.6634 18.75 85.9375 18.75C84.2116 18.75 82.8125 20.1491 82.8125 21.875C82.8125 23.6009 84.2116 25 85.9375 25Z" fill="#FFFA48"/>
<path d="M92.1875 40.625C93.9134 40.625 95.3125 39.2259 95.3125 37.5C95.3125 35.7741 93.9134 34.375 92.1875 34.375C90.4616 34.375 89.0625 35.7741 89.0625 37.5C89.0625 39.2259 90.4616 40.625 92.1875 40.625Z" fill="#FFFA48"/>
<path d="M7.8125 10.9375C9.53839 10.9375 10.9375 9.53839 10.9375 7.8125C10.9375 6.08661 9.53839 4.6875 7.8125 4.6875C6.08661 4.6875 4.6875 6.08661 4.6875 7.8125C4.6875 9.53839 6.08661 10.9375 7.8125 10.9375Z" fill="#FFFA48"/>
<path d="M14.0625 25C15.7884 25 17.1875 23.6009 17.1875 21.875C17.1875 20.1491 15.7884 18.75 14.0625 18.75C12.3366 18.75 10.9375 20.1491 10.9375 21.875C10.9375 23.6009 12.3366 25 14.0625 25Z" fill="#FFFA48"/>
<path d="M7.8125 40.625C9.53839 40.625 10.9375 39.2259 10.9375 37.5C10.9375 35.7741 9.53839 34.375 7.8125 34.375C6.08661 34.375 4.6875 35.7741 4.6875 37.5C4.6875 39.2259 6.08661 40.625 7.8125 40.625Z" fill="#FFFA48"/>
<path d="M7.8125 95.3125C9.53839 95.3125 10.9375 93.9134 10.9375 92.1875C10.9375 90.4616 9.53839 89.0625 7.8125 89.0625C6.08661 89.0625 4.6875 90.4616 4.6875 92.1875C4.6875 93.9134 6.08661 95.3125 7.8125 95.3125Z" fill="#FFFA48"/>
<path d="M14.0625 81.25C15.7884 81.25 17.1875 79.8509 17.1875 78.125C17.1875 76.3991 15.7884 75 14.0625 75C12.3366 75 10.9375 76.3991 10.9375 78.125C10.9375 79.8509 12.3366 81.25 14.0625 81.25Z" fill="#FFFA48"/>
<path d="M7.8125 65.625C9.53839 65.625 10.9375 64.2259 10.9375 62.5C10.9375 60.7741 9.53839 59.375 7.8125 59.375C6.08661 59.375 4.6875 60.7741 4.6875 62.5C4.6875 64.2259 6.08661 65.625 7.8125 65.625Z" fill="#FFFA48"/>
<path d="M92.1875 95.3125C93.9134 95.3125 95.3125 93.9134 95.3125 92.1875C95.3125 90.4616 93.9134 89.0625 92.1875 89.0625C90.4616 89.0625 89.0625 90.4616 89.0625 92.1875C89.0625 93.9134 90.4616 95.3125 92.1875 95.3125Z" fill="#FFFA48"/>
<path d="M85.9375 81.25C87.6634 81.25 89.0625 79.8509 89.0625 78.125C89.0625 76.3991 87.6634 75 85.9375 75C84.2116 75 82.8125 76.3991 82.8125 78.125C82.8125 79.8509 84.2116 81.25 85.9375 81.25Z" fill="#FFFA48"/>
<path d="M92.1875 65.625C93.9134 65.625 95.3125 64.2259 95.3125 62.5C95.3125 60.7741 93.9134 59.375 92.1875 59.375C90.4616 59.375 89.0625 60.7741 89.0625 62.5C89.0625 64.2259 90.4616 65.625 92.1875 65.625Z" fill="#FFFA48"/>
<path d="M92.1875 9.375C93.0504 9.375 93.75 8.67545 93.75 7.8125C93.75 6.94956 93.0504 6.25 92.1875 6.25C91.3246 6.25 90.625 6.94956 90.625 7.8125C90.625 8.67545 91.3246 9.375 92.1875 9.375Z" fill="#FDC741"/>
<path d="M85.9375 23.4375C86.8004 23.4375 87.5 22.7379 87.5 21.875C87.5 21.0121 86.8004 20.3125 85.9375 20.3125C85.0746 20.3125 84.375 21.0121 84.375 21.875C84.375 22.7379 85.0746 23.4375 85.9375 23.4375Z" fill="#FDC741"/>
<path d="M92.1875 39.0625C93.0504 39.0625 93.75 38.3629 93.75 37.5C93.75 36.6371 93.0504 35.9375 92.1875 35.9375C91.3246 35.9375 90.625 36.6371 90.625 37.5C90.625 38.3629 91.3246 39.0625 92.1875 39.0625Z" fill="#FDC741"/>
<path d="M92.1875 64.0625C93.0504 64.0625 93.75 63.3629 93.75 62.5C93.75 61.6371 93.0504 60.9375 92.1875 60.9375C91.3246 60.9375 90.625 61.6371 90.625 62.5C90.625 63.3629 91.3246 64.0625 92.1875 64.0625Z" fill="#FDC741"/>
<path d="M85.9375 79.6875C86.8004 79.6875 87.5 78.9879 87.5 78.125C87.5 77.2621 86.8004 76.5625 85.9375 76.5625C85.0746 76.5625 84.375 77.2621 84.375 78.125C84.375 78.9879 85.0746 79.6875 85.9375 79.6875Z" fill="#FDC741"/>
<path d="M92.1875 93.75C93.0504 93.75 93.75 93.0504 93.75 92.1875C93.75 91.3246 93.0504 90.625 92.1875 90.625C91.3246 90.625 90.625 91.3246 90.625 92.1875C90.625 93.0504 91.3246 93.75 92.1875 93.75Z" fill="#FDC741"/>
<path d="M7.8125 93.75C8.67545 93.75 9.375 93.0504 9.375 92.1875C9.375 91.3246 8.67545 90.625 7.8125 90.625C6.94956 90.625 6.25 91.3246 6.25 92.1875C6.25 93.0504 6.94956 93.75 7.8125 93.75Z" fill="#FDC741"/>
<path d="M14.0625 79.6875C14.9254 79.6875 15.625 78.9879 15.625 78.125C15.625 77.2621 14.9254 76.5625 14.0625 76.5625C13.1996 76.5625 12.5 77.2621 12.5 78.125C12.5 78.9879 13.1996 79.6875 14.0625 79.6875Z" fill="#FDC741"/>
<path d="M7.8125 64.0625C8.67545 64.0625 9.375 63.3629 9.375 62.5C9.375 61.6371 8.67545 60.9375 7.8125 60.9375C6.94956 60.9375 6.25 61.6371 6.25 62.5C6.25 63.3629 6.94956 64.0625 7.8125 64.0625Z" fill="#FDC741"/>
<path d="M7.8125 39.0625C8.67545 39.0625 9.375 38.3629 9.375 37.5C9.375 36.6371 8.67545 35.9375 7.8125 35.9375C6.94956 35.9375 6.25 36.6371 6.25 37.5C6.25 38.3629 6.94956 39.0625 7.8125 39.0625Z" fill="#FDC741"/>
<path d="M14.0625 23.4375C14.9254 23.4375 15.625 22.7379 15.625 21.875C15.625 21.0121 14.9254 20.3125 14.0625 20.3125C13.1996 20.3125 12.5 21.0121 12.5 21.875C12.5 22.7379 13.1996 23.4375 14.0625 23.4375Z" fill="#FDC741"/>
<path d="M7.8125 9.375C8.67545 9.375 9.375 8.67545 9.375 7.8125C9.375 6.94956 8.67545 6.25 7.8125 6.25C6.94956 6.25 6.25 6.94956 6.25 7.8125C6.25 8.67545 6.94956 9.375 7.8125 9.375Z" fill="#FDC741"/>
<path d="M71.875 50C71.875 50.8594 71.1719 51.5625 70.3125 51.5625C70.1562 51.5625 70.0156 51.5469 69.875 51.5C69.7344 50.5937 69.5156 49.7188 69.2656 48.8438C69.5469 48.5938 69.9062 48.4375 70.3125 48.4375C71.1719 48.4375 71.875 49.1406 71.875 50Z" fill="#FCEA42"/>
<path d="M50 82.8125C68.1218 82.8125 82.8125 68.1218 82.8125 50C82.8125 31.8782 68.1218 17.1875 50 17.1875C31.8782 17.1875 17.1875 31.8782 17.1875 50C17.1875 68.1218 31.8782 82.8125 50 82.8125Z" fill="#FFFA48"/>
<path d="M80.5156 62.0469C75.7344 74.2031 63.875 82.8125 50 82.8125C31.875 82.8125 17.1875 68.125 17.1875 50C17.1875 37.2344 24.4687 26.1719 35.1094 20.7656C33.625 24.5 32.8125 28.5625 32.8125 32.8125C32.8125 50.9375 47.5 65.625 65.625 65.625C70.9844 65.625 76.0469 64.3437 80.5156 62.0469Z" fill="#FCEA42"/>
<path d="M50 76.5625C64.6701 76.5625 76.5625 64.6701 76.5625 50C76.5625 35.3299 64.6701 23.4375 50 23.4375C35.3299 23.4375 23.4375 35.3299 23.4375 50C23.4375 64.6701 35.3299 76.5625 50 76.5625Z" fill="#FDC741"/>
<path d="M65.625 65.6249C47.5 65.6249 32.8125 50.9374 32.8125 32.8124C32.8125 31.7374 32.8656 30.6749 32.9672 29.6265C27.1453 34.4999 23.4375 41.814 23.4375 49.9999C23.4375 64.6702 35.3297 76.5624 50 76.5624C59.0953 76.5624 67.1156 71.9858 71.9031 65.0155C69.8703 65.4108 67.7734 65.6249 65.625 65.6249Z" fill="#EFAD1B"/>
<path d="M29.6875 51.5625C30.5504 51.5625 31.25 50.8629 31.25 50C31.25 49.1371 30.5504 48.4375 29.6875 48.4375C28.8246 48.4375 28.125 49.1371 28.125 50C28.125 50.8629 28.8246 51.5625 29.6875 51.5625Z" fill="#FFFA48"/>
<path d="M70.3125 51.5625C71.1754 51.5625 71.875 50.8629 71.875 50C71.875 49.1371 71.1754 48.4375 70.3125 48.4375C69.4496 48.4375 68.75 49.1371 68.75 50C68.75 50.8629 69.4496 51.5625 70.3125 51.5625Z" fill="#FFFA48"/>
<path d="M42.1875 57.8125C42.3063 57.8125 42.4266 57.7984 42.5469 57.7719C43.2516 57.6031 43.75 56.975 43.75 56.25V43.75C43.75 42.8859 43.05 42.1875 42.1875 42.1875C41.325 42.1875 40.625 42.8859 40.625 43.75V49.6312L37.3359 43.0516C37.0109 42.4031 36.2891 42.0703 35.5781 42.2297C34.8734 42.3969 34.375 43.025 34.375 43.75V56.25C34.375 57.1141 35.075 57.8125 35.9375 57.8125C36.8 57.8125 37.5 57.1141 37.5 56.25V50.3687L40.7891 56.9484C41.0594 57.4875 41.6047 57.8125 42.1875 57.8125Z" fill="#FFFA48"/>
<path d="M54.6875 45.3125C55.55 45.3125 56.25 44.6141 56.25 43.75C56.25 42.8859 55.55 42.1875 54.6875 42.1875H48.4375C47.575 42.1875 46.875 42.8859 46.875 43.75V56.25C46.875 57.1141 47.575 57.8125 48.4375 57.8125C49.3 57.8125 50 57.1141 50 56.25V51.5625H53.125C53.9875 51.5625 54.6875 50.8641 54.6875 50C54.6875 49.1359 53.9875 48.4375 53.125 48.4375H50V45.3125H54.6875Z" fill="#FFFA48"/>
<path d="M67.1875 42.1875H60.9375C60.075 42.1875 59.375 42.8859 59.375 43.75C59.375 44.6141 60.075 45.3125 60.9375 45.3125H62.5V56.25C62.5 57.1141 63.2 57.8125 64.0625 57.8125C64.925 57.8125 65.625 57.1141 65.625 56.25V45.3125H67.1875C68.05 45.3125 68.75 44.6141 68.75 43.75C68.75 42.8859 68.05 42.1875 67.1875 42.1875Z" fill="#FFFA48"/>
<path d="M41.4922 38.7997L50 33.1278L58.5078 38.7997C58.775 38.9763 59.0765 39.0622 59.3734 39.0622C59.8781 39.0622 60.3734 38.8185 60.675 38.3669C61.1531 37.6481 60.9594 36.6794 60.2422 36.1997L50.8672 29.9497C50.3422 29.5981 49.6594 29.5981 49.1344 29.9497L39.7594 36.1997C39.0422 36.6794 38.8484 37.6481 39.3265 38.3669C39.8031 39.0841 40.7719 39.2763 41.4922 38.7997Z" fill="#FFFA48"/>
<path d="M58.5078 61.2L50 66.8719L41.4922 61.2C40.7719 60.7203 39.8031 60.9156 39.325 61.6328C38.8469 62.3516 39.0406 63.3203 39.7578 63.8L49.1328 70.05C49.3953 70.225 49.6984 70.3125 50 70.3125C50.3015 70.3125 50.6047 70.225 50.8672 70.05L60.2422 63.8C60.9594 63.3203 61.1531 62.3516 60.675 61.6328C60.1953 60.9156 59.225 60.7203 58.5078 61.2Z" fill="#FFFA48"/>
<path d="M29.6875 51.5625C30.5504 51.5625 31.25 50.8629 31.25 50C31.25 49.1371 30.5504 48.4375 29.6875 48.4375C28.8246 48.4375 28.125 49.1371 28.125 50C28.125 50.8629 28.8246 51.5625 29.6875 51.5625Z" fill="#FCEA42"/>
<path d="M43.5156 57.0625C43.3125 57.4063 42.9687 57.6719 42.5469 57.7656C42.4219 57.7969 42.3125 57.8125 42.1875 57.8125C41.6094 57.8125 41.0625 57.4844 40.7969 56.9531L37.5 50.375V56.25C37.5 57.1094 36.7969 57.8125 35.9375 57.8125C35.0781 57.8125 34.375 57.1094 34.375 56.25V43.75C34.375 43.5469 34.4062 43.3594 34.4844 43.1875C36.2812 48.5625 39.4219 53.3281 43.5156 57.0625Z" fill="#FCEA42"/>
<path d="M58.625 64.8592L50.8594 70.0467C50.6094 70.2186 50.2969 70.3123 50 70.3123C49.7031 70.3123 49.3906 70.2186 49.1406 70.0467L39.7656 63.7967C39.0469 63.328 38.8437 62.3592 39.3281 61.6405C39.7969 60.9217 40.7656 60.7186 41.4844 61.203L50 66.8748L54.6875 63.7498C55.9687 64.203 57.2812 64.578 58.625 64.8592Z" fill="#FCEA42"/>
</svg>
