<svg width="50" height="50" viewBox="0 0 50 50" fill="none" xmlns="http://www.w3.org/2000/svg">
<circle cx="25" cy="25" r="25" fill="#2563EB"/>
<path d="M35 18.925C34.25 19.25 33.475 19.475 32.65 19.575C33.5 19.075 34.15 18.275 34.45 17.3C33.65 17.775 32.775 18.1 31.85 18.3C31.1 17.5 30.025 17 28.85 17C26.575 17 24.75 18.85 24.75 21.1C24.75 21.425 24.775 21.725 24.85 22.025C21.45 21.875 18.45 20.225 16.425 17.75C14.975 20.35 16.6 22.5 17.675 23.225C17.025 23.225 16.375 23.025 15.825 22.725C15.825 24.75 17.25 26.425 19.1 26.8C18.7 26.925 17.8 27 17.25 26.875C17.775 28.5 19.3 29.7 21.075 29.725C19.675 30.825 17.625 31.7 15 31.425C16.825 32.6 18.975 33.275 21.3 33.275C28.85 33.275 32.95 27.025 32.95 21.625C32.95 21.45 32.95 21.275 32.925 21.1C33.775 20.475 34.475 19.75 35 18.925Z" fill="white"/>
</svg>
